<svg width="30" height="30" viewBox="0 0 30 30" fill="none" xmlns="http://www.w3.org/2000/svg">
<path opacity="0.2" d="M30.0005 20.2174C30.0005 20.3904 29.9287 20.5562 29.8008 20.6785C29.6729 20.8009 29.4995 20.8696 29.3187 20.8696H24.5459V24.7826H27.955C28.1359 24.7826 28.3093 24.8513 28.4372 24.9736C28.565 25.0959 28.6369 25.2618 28.6369 25.4348C28.6369 25.6077 28.565 25.7736 28.4372 25.8959C28.3093 26.0182 28.1359 26.087 27.955 26.087H24.5459V29.3478C24.5459 29.5208 24.4741 29.6867 24.3462 29.809C24.2184 29.9313 24.045 30 23.8641 30C23.6833 30 23.5099 29.9313 23.382 29.809C23.2541 29.6867 23.1823 29.5208 23.1823 29.3478V20.2174C23.1823 20.0444 23.2541 19.8785 23.382 19.7562C23.5099 19.6339 23.6833 19.5652 23.8641 19.5652H29.3187C29.4995 19.5652 29.6729 19.6339 29.8008 19.7562C29.9287 19.8785 30.0005 20.0444 30.0005 20.2174ZM7.50049 23.4783C7.50049 24.5161 7.06948 25.5114 6.30229 26.2452C5.5351 26.979 4.49456 27.3913 3.40958 27.3913H1.36412V29.3478C1.36412 29.5208 1.29229 29.6867 1.16442 29.809C1.03656 29.9313 0.863136 30 0.682306 30C0.501477 30 0.328054 29.9313 0.200188 29.809C0.0723226 29.6867 0.000488281 29.5208 0.000488281 29.3478V20.2174C0.000488281 20.0444 0.0723226 19.8785 0.200188 19.7562C0.328054 19.6339 0.501477 19.5652 0.682306 19.5652H3.40958C4.49456 19.5652 5.5351 19.9775 6.30229 20.7113C7.06948 21.4452 7.50049 22.4405 7.50049 23.4783ZM6.13685 23.4783C6.13685 22.7864 5.84951 22.1229 5.33805 21.6336C4.82659 21.1444 4.1329 20.8696 3.40958 20.8696H1.36412V26.087H3.40958C4.1329 26.087 4.82659 25.8121 5.33805 25.3229C5.84951 24.8337 6.13685 24.1701 6.13685 23.4783ZM19.7732 24.7826C19.7732 26.1663 19.1985 27.4934 18.1756 28.4719C17.1527 29.4503 15.7653 30 14.3187 30H11.5914C11.4106 30 11.2371 29.9313 11.1093 29.809C10.9814 29.6867 10.9096 29.5208 10.9096 29.3478V20.2174C10.9096 20.0444 10.9814 19.8785 11.1093 19.7562C11.2371 19.6339 11.4106 19.5652 11.5914 19.5652H14.3187C15.7653 19.5652 17.1527 20.1149 18.1756 21.0934C19.1985 22.0718 19.7732 23.3989 19.7732 24.7826ZM18.4096 24.7826C18.4096 23.7448 17.9786 22.7495 17.2114 22.0157C16.4442 21.2818 15.4036 20.8696 14.3187 20.8696H12.2732V28.6957H14.3187C15.4036 28.6957 16.4442 28.2834 17.2114 27.5495C17.9786 26.8157 18.4096 25.8204 18.4096 24.7826ZM0.000488281 13.6957V1.95652C0.000488281 1.43762 0.215991 0.939971 0.599588 0.573052C0.983185 0.206133 1.50345 2.01653e-07 2.04594 2.01653e-07H18.4096C18.4991 -6.71647e-05 18.5878 0.0167449 18.6706 0.0494763C18.7534 0.0822077 18.8286 0.130217 18.892 0.190761L28.4374 9.3212C28.5007 9.38181 28.5509 9.45375 28.5851 9.53292C28.6193 9.61209 28.6369 9.69694 28.6369 9.78261V13.6957C28.6369 13.8686 28.565 14.0345 28.4372 14.1568C28.3093 14.2791 28.1359 14.3478 27.955 14.3478C27.7742 14.3478 27.6008 14.2791 27.4729 14.1568C27.345 14.0345 27.2732 13.8686 27.2732 13.6957V10.4348H18.4096C18.2288 10.4348 18.0553 10.3661 17.9275 10.2438C17.7996 10.1215 17.7278 9.95558 17.7278 9.78261V1.30435H2.04594C1.86511 1.30435 1.69169 1.37306 1.56382 1.49537C1.43596 1.61767 1.36412 1.78355 1.36412 1.95652V13.6957C1.36412 13.8686 1.29229 14.0345 1.16442 14.1568C1.03656 14.2791 0.863136 14.3478 0.682306 14.3478C0.501477 14.3478 0.328054 14.2791 0.200188 14.1568C0.0723226 14.0345 0.000488281 13.8686 0.000488281 13.6957ZM19.0914 9.13043H26.3084L19.0914 2.22554V9.13043Z" fill="#00125E"/>
</svg>
