<svg width="152" height="20" viewBox="0 0 152 20" fill="none" xmlns="http://www.w3.org/2000/svg">
<path d="M6.98049 2V5.02H2.26049L4.12049 3.16V18.04L2.26049 16.18H6.98049V19.2H0.320488V2H6.98049ZM14.7371 8.56H20.1971C20.8637 8.56 21.3837 8.40667 21.7571 8.1C22.1304 7.79333 22.3171 7.36667 22.3171 6.82C22.3171 6.26 22.1304 5.83333 21.7571 5.54C21.3837 5.23333 20.8637 5.08 20.1971 5.08H14.1571L16.0171 3.1V17H11.8771V2H20.7771C21.9237 2 22.9237 2.20667 23.7771 2.62C24.6304 3.02 25.2971 3.58 25.7771 4.3C26.2571 5.00667 26.4971 5.84667 26.4971 6.82C26.4971 7.76667 26.2571 8.6 25.7771 9.32C25.2971 10.04 24.6304 10.6 23.7771 11C22.9237 11.4 21.9237 11.6 20.7771 11.6H14.7371V8.56ZM16.9771 9.98H21.6371L27.0171 17H22.2171L16.9771 9.98ZM33.7424 17.32C32.3557 17.32 31.1157 17.0667 30.0224 16.56C28.9424 16.0533 28.089 15.3467 27.4624 14.44C26.8357 13.52 26.5224 12.4533 26.5224 11.24C26.5224 10.0533 26.8224 9.01333 27.4224 8.12C28.0224 7.21333 28.8424 6.50667 29.8824 6C30.9357 5.49333 32.1224 5.24 33.4424 5.24C34.8157 5.24 35.9824 5.54 36.9424 6.14C37.9157 6.72667 38.6624 7.56 39.1824 8.64C39.7157 9.72 39.9824 10.9933 39.9824 12.46H29.8224V10H37.6824L36.3424 10.86C36.289 10.2733 36.1424 9.78 35.9024 9.38C35.6624 8.96667 35.3424 8.65333 34.9424 8.44C34.5557 8.22667 34.089 8.12 33.5424 8.12C32.9424 8.12 32.429 8.24 32.0024 8.48C31.5757 8.72 31.2424 9.05333 31.0024 9.48C30.7624 9.89333 30.6424 10.38 30.6424 10.94C30.6424 11.66 30.8024 12.2733 31.1224 12.78C31.4557 13.2733 31.9357 13.6533 32.5624 13.92C33.2024 14.1867 33.9824 14.32 34.9024 14.32C35.7424 14.32 36.5757 14.2133 37.4024 14C38.2424 13.7733 39.0024 13.46 39.6824 13.06V15.66C38.8957 16.1933 37.9957 16.6067 36.9824 16.9C35.9824 17.18 34.9024 17.32 33.7424 17.32ZM42.8899 17.2C42.2232 17.2 41.6765 17 41.2499 16.6C40.8232 16.2 40.6099 15.6867 40.6099 15.06C40.6099 14.42 40.8232 13.9 41.2499 13.5C41.6765 13.1 42.2232 12.9 42.8899 12.9C43.5565 12.9 44.1032 13.1 44.5299 13.5C44.9565 13.9 45.1699 14.42 45.1699 15.06C45.1699 15.6867 44.9565 16.2 44.5299 16.6C44.1032 17 43.5565 17.2 42.8899 17.2ZM42.8899 10.4C42.2232 10.4 41.6765 10.2 41.2499 9.8C40.8232 9.38667 40.6099 8.86667 40.6099 8.24C40.6099 7.61333 40.8232 7.1 41.2499 6.7C41.6765 6.28667 42.2232 6.08 42.8899 6.08C43.5565 6.08 44.1032 6.28667 44.5299 6.7C44.9565 7.1 45.1699 7.61333 45.1699 8.24C45.1699 8.86667 44.9565 9.38667 44.5299 9.8C44.1032 10.2 43.5565 10.4 42.8899 10.4Z" fill="#F6512C"/>
<path d="M52.7502 14.12V10.78H63.0902V14.12H52.7502ZM60.7302 2L67.5502 17H63.1302L57.4102 3.76H58.6102L52.8702 17H48.4502L55.2702 2H60.7302ZM80.5491 12.18C80.4424 13.2067 80.0691 14.1067 79.4291 14.88C78.7891 15.6533 77.9557 16.2533 76.9291 16.68C75.9157 17.1067 74.7757 17.32 73.5091 17.32C72.1091 17.32 70.8757 17.0667 69.8091 16.56C68.7424 16.0533 67.9091 15.3467 67.3091 14.44C66.7091 13.5333 66.4091 12.4867 66.4091 11.3C66.4091 10.1 66.7091 9.04667 67.3091 8.14C67.9091 7.23333 68.7424 6.52667 69.8091 6.02C70.8757 5.5 72.1091 5.24 73.5091 5.24C74.7757 5.24 75.9157 5.46 76.9291 5.9C77.9557 6.32667 78.7891 6.92667 79.4291 7.7C80.0691 8.46 80.4424 9.36 80.5491 10.4H76.4891C76.3424 9.72 76.0024 9.2 75.4691 8.84C74.9357 8.46667 74.2824 8.28 73.5091 8.28C72.9091 8.28 72.3824 8.4 71.9291 8.64C71.4891 8.86667 71.1424 9.20667 70.8891 9.66C70.6491 10.1 70.5291 10.6467 70.5291 11.3C70.5291 11.94 70.6491 12.4867 70.8891 12.94C71.1424 13.38 71.4891 13.72 71.9291 13.96C72.3824 14.1867 72.9091 14.3 73.5091 14.3C74.2824 14.3 74.9357 14.1067 75.4691 13.72C76.0157 13.3333 76.3557 12.82 76.4891 12.18H80.5491ZM80.0072 8.6V6.82L82.3272 5.88L84.0872 2.5H86.4072V5.58H91.2072V8.6H86.4072V11.96C86.4072 12.7867 86.5739 13.3667 86.9072 13.7C87.2405 14.0333 87.8472 14.2 88.7272 14.2C89.2872 14.2 89.7805 14.1533 90.2072 14.06C90.6472 13.9533 91.0472 13.82 91.4072 13.66V16.74C91.0072 16.8867 90.4805 17.02 89.8272 17.14C89.1739 17.26 88.5005 17.32 87.8072 17.32C86.5405 17.32 85.5005 17.1267 84.6872 16.74C83.8872 16.3533 83.2939 15.8 82.9072 15.08C82.5205 14.3467 82.3272 13.4933 82.3272 12.52V8.6H80.0072ZM92.058 5.4L94.118 5.8L96.158 5.4V17H92.058V5.4ZM94.098 4.46C93.3913 4.46 92.818 4.28667 92.378 3.94C91.938 3.58 91.718 3.09333 91.718 2.48C91.718 1.88 91.938 1.4 92.378 1.04C92.818 0.679999 93.3913 0.499999 94.098 0.499999C94.8313 0.499999 95.4113 0.679999 95.838 1.04C96.278 1.4 96.498 1.88 96.498 2.48C96.498 3.09333 96.278 3.58 95.838 3.94C95.4113 4.28667 94.8313 4.46 94.098 4.46ZM104.726 15.06L103.326 15.04L107.286 5.58H111.646L106.306 17H101.646L96.3056 5.58H100.826L104.726 15.06ZM111.237 5.58H115.337L116.077 10.14V17H111.997V9.52L111.237 5.58ZM120.277 5.24C121.37 5.24 122.303 5.46 123.077 5.9C123.85 6.34 124.437 6.96 124.837 7.76C125.25 8.56 125.457 9.50667 125.457 10.6V17H121.377V11.2C121.377 10.3467 121.157 9.69333 120.717 9.24C120.29 8.78667 119.67 8.56 118.857 8.56C118.297 8.56 117.803 8.68 117.377 8.92C116.963 9.16 116.643 9.5 116.417 9.94C116.19 10.38 116.077 10.9 116.077 11.5L114.817 10.84C114.977 9.62667 115.317 8.60667 115.837 7.78C116.357 6.94 116.997 6.30667 117.757 5.88C118.517 5.45333 119.357 5.24 120.277 5.24ZM133.358 17.32C131.891 17.32 130.611 17.0733 129.518 16.58C128.425 16.0733 127.571 15.3667 126.958 14.46C126.345 13.54 126.038 12.4867 126.038 11.3C126.038 10.0867 126.345 9.02667 126.958 8.12C127.571 7.21333 128.425 6.50667 129.518 6C130.611 5.49333 131.891 5.24 133.358 5.24C134.811 5.24 136.085 5.49333 137.178 6C138.285 6.50667 139.145 7.21333 139.758 8.12C140.371 9.02667 140.678 10.0867 140.678 11.3C140.678 12.4867 140.371 13.54 139.758 14.46C139.145 15.3667 138.285 16.0733 137.178 16.58C136.085 17.0733 134.811 17.32 133.358 17.32ZM133.358 14.3C134.025 14.3 134.591 14.18 135.058 13.94C135.538 13.7 135.905 13.3533 136.158 12.9C136.411 12.4467 136.538 11.9133 136.538 11.3C136.538 10.66 136.411 10.12 136.158 9.68C135.905 9.22667 135.538 8.88 135.058 8.64C134.591 8.4 134.025 8.28 133.358 8.28C132.691 8.28 132.118 8.4 131.638 8.64C131.158 8.88 130.791 9.22667 130.538 9.68C130.285 10.12 130.158 10.6533 130.158 11.28C130.158 11.9067 130.285 12.4467 130.538 12.9C130.791 13.3533 131.158 13.7 131.638 13.94C132.118 14.18 132.691 14.3 133.358 14.3ZM144.782 2H151.442V19.2H144.782V16.18H149.522L147.642 18.04V3.16L149.522 5.02H144.782V2Z" fill="#00125E"/>
</svg>
